<svg xmlns="http://www.w3.org/2000/svg" width="191.079" height="56.409" viewBox="0 0 191.079 56.409">
  <g id="play" transform="translate(-0.537)">
    <path id="Path_4382" data-name="Path 4382" d="M27.9,24.083l9.254,9.285a1.616,1.616,0,0,1,0,2.28L27.883,45.1Zm3.2-4.545,10.368,5.974,3.679,2.119L41.687,31.1a1.6,1.6,0,0,1-2.273,0L28.292,19.942A2.344,2.344,0,0,1,31.094,19.538Zm-1.162,30.15a2.228,2.228,0,0,1-1.575-.679L39.414,37.92a1.6,1.6,0,0,1,2.273,0l3.4,3.416L31.048,49.389A2.217,2.217,0,0,1,29.932,49.688Zm23.607-13.3-5.566,3.292-4.021-4.033a1.616,1.616,0,0,1,0-2.28l4.066-4.078,5.539,3.262.036.019a2.158,2.158,0,0,1,1.135,1.894A2.18,2.18,0,0,1,53.539,36.39Zm1.747-6.617L32.708,16.763A5.441,5.441,0,0,0,29.932,16a5.314,5.314,0,0,0-5.222,4.029,5.518,5.518,0,0,0-.173,1.346l0,26.207a8.783,8.783,0,0,0,.185,1.337,5.406,5.406,0,0,0,7.927,3.251L55.238,39.218a5.365,5.365,0,0,0,.048-9.445Z" transform="translate(-9.633 -6.246)" fill="#fff"/>
    <path id="Path_4383" data-name="Path 4383" d="M115.673,20.581a3.673,3.673,0,0,1-1.01,2.716,3.946,3.946,0,0,1-2.989,1.2,4.191,4.191,0,0,1-4.227-4.25A4.191,4.191,0,0,1,111.674,16a4.187,4.187,0,0,1,1.67.342,3.367,3.367,0,0,1,1.273.909l-.716.716A2.748,2.748,0,0,0,111.674,17a3.144,3.144,0,0,0-3.16,3.25,3.2,3.2,0,0,0,5.432,2.341,2.559,2.559,0,0,0,.681-1.648h-2.954v-.978h3.943A3.546,3.546,0,0,1,115.673,20.581Z" transform="translate(-44.74 -6.246)" fill="#fff"/>
    <path id="Path_4384" data-name="Path 4384" d="M115.673,20.581a3.673,3.673,0,0,1-1.01,2.716,3.946,3.946,0,0,1-2.989,1.2,4.191,4.191,0,0,1-4.227-4.25A4.191,4.191,0,0,1,111.674,16a4.187,4.187,0,0,1,1.67.342,3.367,3.367,0,0,1,1.273.909l-.716.716A2.748,2.748,0,0,0,111.674,17a3.144,3.144,0,0,0-3.16,3.25,3.2,3.2,0,0,0,5.432,2.341,2.559,2.559,0,0,0,.681-1.648h-2.954v-.978h3.943A3.546,3.546,0,0,1,115.673,20.581Z" transform="translate(-44.74 -6.246)" fill="#fff"/>
    <path id="Path_4385" data-name="Path 4385" d="M129.067,17.317h-3.705V19.9H128.7v.978h-3.341v2.579h3.705v1h-4.751V16.318h4.751Z" transform="translate(-51.883 -6.38)" fill="#fff"/>
    <path id="Path_4386" data-name="Path 4386" d="M129.067,17.317h-3.705V19.9H128.7v.978h-3.341v2.579h3.705v1h-4.751V16.318h4.751Z" transform="translate(-51.883 -6.38)" fill="#fff"/>
    <path id="Path_4387" data-name="Path 4387" d="M137.765,24.454h-1.046V17.317h-2.272v-1h5.591v1h-2.273Z" transform="translate(-56.173 -6.38)" fill="#fff"/>
    <path id="Path_4388" data-name="Path 4388" d="M137.765,24.454h-1.046V17.317h-2.272v-1h5.591v1h-2.273Z" transform="translate(-56.173 -6.38)" fill="#fff"/>
    <path id="Path_4389" data-name="Path 4389" d="M151.16,16.317h1.046v8.137H151.16Z" transform="translate(-63.25 -6.38)" fill="#fff"/>
    <path id="Path_4390" data-name="Path 4390" d="M158.579,24.454h-1.045V17.317h-2.273v-1h5.591v1h-2.273Z" transform="translate(-64.986 -6.38)" fill="#fff"/>
    <path id="Path_4391" data-name="Path 4391" d="M158.579,24.454h-1.045V17.317h-2.273v-1h5.591v1h-2.273Z" transform="translate(-64.986 -6.38)" fill="#fff"/>
    <path id="Path_4392" data-name="Path 4392" d="M172.86,22.586a3.13,3.13,0,0,0,4.421,0,3.187,3.187,0,0,0,.9-2.335,3.185,3.185,0,0,0-.9-2.335,3.127,3.127,0,0,0-4.421,0,3.188,3.188,0,0,0-.9,2.335A3.191,3.191,0,0,0,172.86,22.586Zm5.194.681a4.221,4.221,0,0,1-5.965,0,4.4,4.4,0,0,1,0-6.033,4.209,4.209,0,0,1,5.96.005,4.382,4.382,0,0,1,.005,6.028Z" transform="translate(-71.604 -6.246)" fill="#fff"/>
    <path id="Path_4393" data-name="Path 4393" d="M172.86,22.586a3.13,3.13,0,0,0,4.421,0,3.187,3.187,0,0,0,.9-2.335,3.185,3.185,0,0,0-.9-2.335,3.127,3.127,0,0,0-4.421,0,3.188,3.188,0,0,0-.9,2.335A3.191,3.191,0,0,0,172.86,22.586Zm5.194.681a4.221,4.221,0,0,1-5.965,0,4.4,4.4,0,0,1,0-6.033,4.209,4.209,0,0,1,5.96.005,4.382,4.382,0,0,1,.005,6.028Z" transform="translate(-71.604 -6.246)" fill="#fff"/>
    <path id="Path_4394" data-name="Path 4394" d="M187.939,24.454V16.317h1.272l3.955,6.329h.046l-.046-1.568V16.317h1.047v8.137h-1.092l-4.137-6.637h-.044l.044,1.569v5.068Z" transform="translate(-78.823 -6.38)" fill="#fff"/>
    <path id="Path_4395" data-name="Path 4395" d="M187.939,24.454V16.317h1.272l3.955,6.329h.046l-.046-1.568V16.317h1.047v8.137h-1.092l-4.137-6.637h-.044l.044,1.569v5.068Z" transform="translate(-78.823 -6.38)" fill="#fff"/>
    <path id="Path_4396" data-name="Path 4396" d="M196.075,57.513h2.531V40.561h-2.531Zm22.792-10.846-2.9,7.35h-.086l-3.011-7.35h-2.725l4.514,10.272-2.572,5.715h2.637l6.958-15.987Zm-14.35,8.92c-.83,0-1.985-.414-1.985-1.44,0-1.307,1.439-1.809,2.682-1.809a4.509,4.509,0,0,1,2.312.567A3.067,3.067,0,0,1,204.516,55.587Zm.3-9.291a4.748,4.748,0,0,0-4.514,2.6l2.245.937a2.4,2.4,0,0,1,2.313-1.244,2.436,2.436,0,0,1,2.66,2.182v.174a5.6,5.6,0,0,0-2.639-.654c-2.42,0-4.886,1.33-4.886,3.816,0,2.269,1.985,3.731,4.21,3.731a3.569,3.569,0,0,0,3.229-1.658h.086v1.309h2.442v-6.5C209.968,47.976,207.722,46.3,204.821,46.3Zm-15.638,2.434h-3.6V42.92h3.6a2.906,2.906,0,1,1,0,5.811Zm-.065-8.17h-6.063V57.513h2.529V51.091h3.534a5.273,5.273,0,1,0,0-10.53ZM156.055,55.59a3.508,3.508,0,0,1,0-6.991,3.25,3.25,0,0,1,3.079,3.518A3.222,3.222,0,0,1,156.055,55.59Zm2.906-7.974h-.088a4,4,0,0,0-3.036-1.288,5.773,5.773,0,0,0,0,11.535,3.929,3.929,0,0,0,3.036-1.311h.088v.831c0,2.206-1.18,3.386-3.081,3.386a3.192,3.192,0,0,1-2.906-2.054l-2.207.918a5.5,5.5,0,0,0,5.112,3.408c2.972,0,5.484-1.748,5.484-6.007V46.677h-2.4Zm4.151,9.9h2.535V40.559h-2.535Zm6.269-5.592a3.164,3.164,0,0,1,3.015-3.364,2.23,2.23,0,0,1,2.141,1.223ZM177.247,50a5.361,5.361,0,0,0-4.938-3.67A5.48,5.48,0,0,0,166.87,52.1a5.644,5.644,0,0,0,5.723,5.767,5.736,5.736,0,0,0,4.807-2.556L175.434,54a3.294,3.294,0,0,1-2.841,1.595,2.935,2.935,0,0,1-2.8-1.747l7.712-3.191Zm-61.442-1.9v2.446h5.854a5.109,5.109,0,0,1-1.332,3.08,5.994,5.994,0,0,1-4.523,1.793,6.511,6.511,0,0,1,0-13.021,6.237,6.237,0,0,1,4.412,1.748l1.727-1.726a8.538,8.538,0,0,0-6.139-2.469,8.959,8.959,0,1,0,0,17.915,8.191,8.191,0,0,0,6.248-2.513,8.079,8.079,0,0,0,2.119-5.724,7.9,7.9,0,0,0-.131-1.528Zm15.024,7.492a3.5,3.5,0,1,1,3.255-3.495A3.336,3.336,0,0,1,130.829,55.59Zm0-9.262a5.767,5.767,0,1,0,5.789,5.767A5.685,5.685,0,0,0,130.829,46.328Zm12.629,9.262a3.5,3.5,0,1,1,3.255-3.495A3.336,3.336,0,0,1,143.459,55.59Zm0-9.262a5.767,5.767,0,1,0,5.789,5.767A5.685,5.685,0,0,0,143.459,46.328Z" transform="translate(-44.431 -16.386)" fill="#fff"/>
    <rect id="Rectangle_2261" data-name="Rectangle 2261" width="188.579" height="53.909" rx="8.75" transform="translate(1.787 1.25)" fill="none" stroke="#fff" stroke-width="2.5"/>
  </g>
</svg>
