<svg xmlns="http://www.w3.org/2000/svg" width="190.579" height="56.782" viewBox="0 0 190.579 56.782">
  <g id="Mac_App_Store" data-name="Mac App Store" transform="translate(-0.492)">
    <path id="Path_4397" data-name="Path 4397" d="M49.837,42.276a8.476,8.476,0,0,1,4.036-7.112,8.677,8.677,0,0,0-6.836-3.7c-2.876-.3-5.665,1.721-7.13,1.721-1.494,0-3.751-1.691-6.181-1.641a9.1,9.1,0,0,0-7.661,4.672c-3.313,5.735-.842,14.164,2.331,18.8,1.588,2.27,3.443,4.806,5.871,4.716,2.376-.1,3.263-1.515,6.131-1.515,2.841,0,3.674,1.515,6.151,1.458,2.549-.041,4.156-2.28,5.687-4.572a18.776,18.776,0,0,0,2.6-5.3,8.191,8.191,0,0,1-5-7.535Z" transform="translate(-9.596 -12.699)" fill="#fff"/>
    <path id="Path_4398" data-name="Path 4398" d="M55.972,21.979A8.346,8.346,0,0,0,57.881,16a8.491,8.491,0,0,0-5.494,2.843A7.942,7.942,0,0,0,50.428,24.6a7.021,7.021,0,0,0,5.544-2.621Z" transform="translate(-20.41 -6.258)" fill="#fff"/>
    <path id="Path_4402" data-name="Path 4402" d="M203.06,54.118h-7.046l-1.692,5h-2.984l6.675-18.487h3.1l6.674,18.487h-3.036Zm-6.317-2.306h5.586L199.576,43.7H199.5Z" transform="translate(-132.822 -16.533)" fill="#fff"/>
    <path id="Path_4403" data-name="Path 4403" d="M235.208,55.859c0,4.188-2.242,6.879-5.624,6.879a4.569,4.569,0,0,1-4.241-2.358h-.064v6.676h-2.766V49.119h2.678v2.242h.051a4.781,4.781,0,0,1,4.292-2.383C232.953,48.978,235.208,51.682,235.208,55.859Zm-2.843,0c0-2.729-1.41-4.523-3.562-4.523-2.114,0-3.536,1.832-3.536,4.523,0,2.716,1.422,4.534,3.536,4.534C230.954,60.393,232.365,58.612,232.365,55.859Z" transform="translate(-145.829 -20.016)" fill="#fff"/>
    <path id="Path_4404" data-name="Path 4404" d="M260.663,55.859c0,4.188-2.242,6.879-5.625,6.879a4.568,4.568,0,0,1-4.24-2.358h-.064v6.676h-2.766V49.119h2.678v2.242h.051a4.781,4.781,0,0,1,4.292-2.383C258.408,48.978,260.663,51.682,260.663,55.859Zm-2.844,0c0-2.729-1.41-4.523-3.561-4.523-2.114,0-3.536,1.832-3.536,4.523,0,2.716,1.422,4.534,3.536,4.534,2.152,0,3.561-1.781,3.561-4.534Z" transform="translate(-156.449 -20.016)" fill="#fff"/>
    <path id="Path_4405" data-name="Path 4405" d="M284.548,53.743c.205,1.833,1.986,3.037,4.42,3.037,2.332,0,4.01-1.2,4.01-2.857,0-1.435-1.012-2.294-3.408-2.883l-2.4-.577c-3.395-.82-4.971-2.408-4.971-4.984,0-3.19,2.779-5.381,6.727-5.381,3.906,0,6.584,2.191,6.675,5.381h-2.793c-.167-1.845-1.692-2.959-3.921-2.959s-3.754,1.127-3.754,2.767c0,1.307.974,2.076,3.357,2.665l2.037.5c3.793.9,5.369,2.421,5.369,5.125,0,3.459-2.755,5.625-7.137,5.625-4.1,0-6.868-2.115-7.046-5.459Z" transform="translate(-170.53 -16.313)" fill="#fff"/>
    <path id="Path_4406" data-name="Path 4406" d="M312.905,43.749v3.19h2.563v2.191h-2.563v7.43c0,1.154.513,1.692,1.64,1.692a8.644,8.644,0,0,0,.91-.064v2.178a7.6,7.6,0,0,1-1.537.128c-2.729,0-3.793-1.025-3.793-3.639V49.129h-1.96V46.938h1.96v-3.19Z" transform="translate(-181.565 -17.835)" fill="#fff"/>
    <path id="Path_4407" data-name="Path 4407" d="M323.241,55.843c0-4.241,2.5-6.906,6.393-6.906s6.394,2.665,6.394,6.906-2.473,6.906-6.394,6.906S323.241,60.1,323.241,55.843Zm9.967,0c0-2.909-1.333-4.626-3.575-4.626s-3.575,1.73-3.575,4.626c0,2.921,1.333,4.625,3.575,4.625s3.575-1.7,3.575-4.625Z" transform="translate(-187.854 -20)" fill="#fff"/>
    <path id="Path_4408" data-name="Path 4408" d="M349.1,49.119h2.639v2.294h.064a3.215,3.215,0,0,1,3.242-2.435,4.263,4.263,0,0,1,.948.1v2.588a3.865,3.865,0,0,0-1.243-.167,2.787,2.787,0,0,0-2.882,3.1V62.6H349.1Z" transform="translate(-198.642 -20.016)" fill="#fff"/>
    <path id="Path_4409" data-name="Path 4409" d="M374.105,58.623c-.372,2.447-2.755,4.126-5.8,4.126-3.921,0-6.355-2.627-6.355-6.842s2.447-6.97,6.238-6.97c3.729,0,6.074,2.562,6.074,6.648v.948h-9.52V56.7a3.511,3.511,0,0,0,3.626,3.818,3.049,3.049,0,0,0,3.113-1.9ZM364.753,54.6h6.738a3.241,3.241,0,0,0-3.306-3.421,3.411,3.411,0,0,0-3.432,3.421Z" transform="translate(-204.003 -20)" fill="#fff"/>
    <path id="Path_4410" data-name="Path 4410" d="M104.594,16.744a3.929,3.929,0,0,1,4.18,4.414c0,2.838-1.534,4.469-4.18,4.469h-3.208V16.744Zm-1.829,7.627h1.675a2.792,2.792,0,0,0,2.929-3.195A2.8,2.8,0,0,0,104.44,18h-1.675Z" transform="translate(-41.677 -6.564)" fill="#fff"/>
    <path id="Path_4411" data-name="Path 4411" d="M116.726,23.747a3.176,3.176,0,1,1,6.323,0,3.176,3.176,0,1,1-6.323,0Zm4.962,0c0-1.453-.653-2.3-1.8-2.3s-1.8.85-1.8,2.3.647,2.308,1.8,2.308,1.8-.849,1.8-2.308Z" transform="translate(-48.071 -8.039)" fill="#fff"/>
    <path id="Path_4412" data-name="Path 4412" d="M136.675,27.194H135.3l-1.386-4.937h-.1l-1.38,4.937h-1.359l-1.848-6.7h1.342l1.2,5.115h.1l1.378-5.115h1.269l1.378,5.115h.1l1.2-5.115h1.323Z" transform="translate(-53.292 -8.132)" fill="#fff"/>
    <path id="Path_4413" data-name="Path 4413" d="M147.833,20.393h1.273v1.065h.1a2.008,2.008,0,0,1,2-1.194,2.18,2.18,0,0,1,2.32,2.493V27.1H152.2V23.089c0-1.077-.468-1.613-1.446-1.613a1.537,1.537,0,0,0-1.6,1.7V27.1h-1.323Z" transform="translate(-61.055 -8.034)" fill="#fff"/>
    <path id="Path_4414" data-name="Path 4414" d="M161.219,16h1.323v9.32h-1.323Z" transform="translate(-66.64 -6.258)" fill="#fff"/>
    <path id="Path_4415" data-name="Path 4415" d="M166.633,23.747a3.176,3.176,0,1,1,6.323,0,3.176,3.176,0,1,1-6.323,0Zm4.962,0c0-1.453-.653-2.3-1.8-2.3s-1.8.85-1.8,2.3.647,2.308,1.8,2.308,1.8-.849,1.8-2.308Z" transform="translate(-68.893 -8.039)" fill="#fff"/>
    <path id="Path_4416" data-name="Path 4416" d="M179.883,25.205c0-1.207.9-1.9,2.493-2l1.816-.1v-.579c0-.708-.468-1.108-1.372-1.108-.738,0-1.25.271-1.4.745h-1.281c.135-1.151,1.218-1.89,2.739-1.89,1.681,0,2.628.837,2.628,2.253V27.1h-1.273v-.942h-.1a2.255,2.255,0,0,1-2.014,1.053,2.025,2.025,0,0,1-2.234-2.006Zm4.309-.573v-.56l-1.637.1c-.923.062-1.342.376-1.342.967s.523.954,1.242.954a1.58,1.58,0,0,0,1.736-1.465Z" transform="translate(-74.427 -8.039)" fill="#fff"/>
    <path id="Path_4417" data-name="Path 4417" d="M192.521,21.966c0-2.118,1.089-3.46,2.782-3.46a2.21,2.21,0,0,1,2.056,1.176h.1V16h1.323v9.32h-1.268V24.261h-.1a2.326,2.326,0,0,1-2.105,1.17C193.6,25.431,192.521,24.089,192.521,21.966Zm1.367,0c0,1.422.67,2.277,1.791,2.277s1.8-.868,1.8-2.272-.7-2.277-1.8-2.277-1.791.861-1.791,2.272Z" transform="translate(-79.7 -6.258)" fill="#fff"/>
    <path id="Path_4418" data-name="Path 4418" d="M212.643,23.747a3.176,3.176,0,1,1,6.324,0,3.177,3.177,0,1,1-6.324,0Zm4.962,0c0-1.453-.653-2.3-1.8-2.3s-1.8.85-1.8,2.3.647,2.308,1.8,2.308,1.8-.849,1.8-2.308Z" transform="translate(-88.089 -8.039)" fill="#fff"/>
    <path id="Path_4419" data-name="Path 4419" d="M226.551,20.393h1.273v1.065h.1a2.006,2.006,0,0,1,2-1.194,2.18,2.18,0,0,1,2.32,2.493V27.1h-1.323V23.089c0-1.077-.468-1.613-1.446-1.613a1.537,1.537,0,0,0-1.6,1.7V27.1h-1.323Z" transform="translate(-93.898 -8.034)" fill="#fff"/>
    <path id="Path_4420" data-name="Path 4420" d="M247.437,17.626v1.7h1.452V20.44h-1.452v3.447c0,.7.289,1.01.948,1.01a4.448,4.448,0,0,0,.5-.031v1.1a4.348,4.348,0,0,1-.72.068c-1.472,0-2.057-.518-2.057-1.81V20.44h-1.064V19.326h1.064v-1.7Z" transform="translate(-101.615 -6.937)" fill="#fff"/>
    <path id="Path_4421" data-name="Path 4421" d="M254.74,16h1.311v3.694h.1a2.063,2.063,0,0,1,2.044-1.2,2.209,2.209,0,0,1,2.309,2.5V25.32h-1.324v-4c0-1.071-.5-1.613-1.434-1.613a1.566,1.566,0,0,0-1.688,1.7V25.32H254.74Z" transform="translate(-105.658 -6.258)" fill="#fff"/>
    <path id="Path_4422" data-name="Path 4422" d="M273.557,25.291a2.722,2.722,0,0,1-2.9,1.939,3.044,3.044,0,0,1-3.1-3.46,3.092,3.092,0,0,1,3.091-3.5c1.865,0,2.99,1.274,2.99,3.379v.462H268.9v.074a1.772,1.772,0,0,0,1.785,1.92,1.607,1.607,0,0,0,1.6-.813Zm-4.654-2.16h3.386a1.617,1.617,0,0,0-1.65-1.737,1.714,1.714,0,0,0-1.736,1.737Z" transform="translate(-110.994 -8.039)" fill="#fff"/>
    <rect id="Rectangle_2262" data-name="Rectangle 2262" width="188.579" height="54.782" rx="9" transform="translate(1.492 1)" fill="none" stroke="#fff" stroke-width="2"/>
  </g>
</svg>
